<?xml version="1.0" encoding="iso-8859-1"?>
<!-- Uploaded to: SVG Repo, www.svgrepo.com, Generator: SVG Repo Mixer Tools -->
<svg version="1.1" id="Layer_1" xmlns="http://www.w3.org/2000/svg" xmlns:xlink="http://www.w3.org/1999/xlink" 
	 viewBox="0 0 512 512" xml:space="preserve">
<g>
	<rect x="333.395" y="193.488" style="fill:#C3C7C9;" width="47.628" height="47.628"/>
	<rect x="333.395" y="282.791" style="fill:#C3C7C9;" width="47.628" height="47.628"/>
	<rect x="333.395" y="372.093" style="fill:#C3C7C9;" width="47.628" height="47.628"/>
	<rect x="250.047" y="372.093" style="fill:#C3C7C9;" width="47.628" height="47.628"/>
	<rect x="166.698" y="372.093" style="fill:#C3C7C9;" width="47.628" height="47.628"/>
	<rect x="166.698" y="282.791" style="fill:#C3C7C9;" width="47.628" height="47.628"/>
	<rect x="250.047" y="282.791" style="fill:#C3C7C9;" width="47.628" height="47.628"/>
	<rect x="250.047" y="193.488" style="fill:#C3C7C9;" width="47.628" height="47.628"/>
</g>
<path style="fill:#31424D;" d="M214.326,282.791h-47.628v47.628h47.628V282.791z M125.023,211.349h77.395v-59.535h220.279v309.581
	H125.023V211.349z M381.023,419.721v-47.628h-47.628v47.628H381.023z M381.023,330.419v-47.628h-47.628v47.628H381.023z
	 M381.023,241.116v-47.628h-47.628v47.628H381.023z M297.674,419.721v-47.628h-47.628v47.628H297.674z M297.674,330.419v-47.628
	h-47.628v47.628H297.674z M297.674,241.116v-47.628h-47.628v47.628H297.674z M214.326,419.721v-47.628h-47.628v47.628H214.326z"/>
<polygon style="fill:#C3C7C9;" points="464.372,110.14 464.372,503.07 83.349,503.07 83.349,211.349 125.023,211.349 
	125.023,461.395 422.698,461.395 422.698,151.814 202.419,151.814 202.419,110.14 "/>
<path style="fill:#FFD311;" d="M125.023,104.186c13.098,0,23.814,10.716,23.814,23.814s-10.716,23.814-23.814,23.814
	S101.209,141.098,101.209,128S111.926,104.186,125.023,104.186z"/>
<path style="fill:#FDB51E;" d="M125.023,151.814c13.098,0,23.814-10.716,23.814-23.814s-10.716-23.814-23.814-23.814
	S101.209,114.902,101.209,128S111.926,151.814,125.023,151.814z M202.419,151.814v59.535h-77.395H83.349H47.628V68.465h154.791
	v41.674V151.814z"/>
<path style="fill:#24343D;" d="M250.047,419.721v-47.628h23.814v-41.674h-23.814v-47.628h23.814v-41.674h-23.814v-47.628h23.814
	v-41.674h-71.442v59.535h-77.395v250.047H273.86v-41.674H250.047z M214.326,419.721h-47.628v-47.628h47.628V419.721z
	 M214.326,330.419h-47.628v-47.628h47.628V330.419z"/>
<path d="M211.349,101.209V59.535h-41.674V14.884C169.674,7.668,164.458,0,154.791,0H95.256c-9.667,0-14.884,7.668-14.884,14.884
	v44.651H38.698v160.744h35.721V512h398.884V101.209H211.349z M133.953,220.279h77.395v-59.535h202.419v291.721H133.953V220.279z
	 M98.233,17.86h53.581v41.674H98.233V17.86z M56.558,77.395h136.93v125.023H56.558V77.395z M455.442,494.14H92.279v-273.86h23.814
	v250.047h315.535V142.884H211.349V119.07h244.093V494.14z"/>
<path d="M157.767,128c0-18.055-14.69-32.744-32.744-32.744S92.279,109.945,92.279,128c0,14.959,10.088,27.598,23.814,31.496v28.039
	h17.86v-28.039C147.68,155.598,157.767,142.959,157.767,128z M125.023,142.884c-8.207,0-14.884-6.676-14.884-14.884
	s6.676-14.884,14.884-14.884s14.884,6.676,14.884,14.884S133.231,142.884,125.023,142.884z"/>
<path d="M241.116,250.047h65.488v-65.488h-65.488V250.047z M258.977,202.419h29.767v29.767h-29.767V202.419z"/>
<path d="M324.465,250.047h65.488v-65.488h-65.488V250.047z M342.326,202.419h29.767v29.767h-29.767V202.419z"/>
<path d="M324.465,339.349h65.488V273.86h-65.488V339.349z M342.326,291.721h29.767v29.767h-29.767V291.721z"/>
<path d="M241.116,339.349h65.488V273.86h-65.488V339.349z M258.977,291.721h29.767v29.767h-29.767V291.721z"/>
<path d="M157.767,339.349h65.488V273.86h-65.488V339.349z M175.628,291.721h29.767v29.767h-29.767V291.721z"/>
<path d="M324.465,428.651h65.488v-65.488h-65.488V428.651z M342.326,381.023h29.767v29.767h-29.767V381.023z"/>
<path d="M241.116,428.651h65.488v-65.488h-65.488V428.651z M258.977,381.023h29.767v29.767h-29.767V381.023z"/>
<path d="M157.767,428.651h65.488v-65.488h-65.488V428.651z M175.628,381.023h29.767v29.767h-29.767V381.023z"/>
<g>
	<rect x="154.791" y="238.14" style="fill:#FFFFFF;" width="23.814" height="17.86"/>
	<rect x="190.512" y="238.14" style="fill:#FFFFFF;" width="23.814" height="17.86"/>
</g>
<rect x="71.442" y="166.698" width="23.814" height="17.86"/>
<rect x="154.791" y="166.698" width="23.814" height="17.86"/>
</svg>